<?xml version="1.0" encoding="UTF-8" standalone="no"?>
<!-- Created with Inkscape (http://www.inkscape.org/) -->

<svg
   width="48px"
   height="48px"
   id="svg1306"
   version="1.1"
   xmlns:xlink="http://www.w3.org/1999/xlink"
   xmlns="http://www.w3.org/2000/svg"
   xmlns:svg="http://www.w3.org/2000/svg"
   xmlns:rdf="http://www.w3.org/1999/02/22-rdf-syntax-ns#"
   xmlns:cc="http://creativecommons.org/ns#"
   xmlns:dc="http://purl.org/dc/elements/1.1/">
  <defs
     id="defs1308">
    <linearGradient
       id="linearGradient5199">
      <stop
         style="stop-color:#7e7878;stop-opacity:0.09708738;"
         offset="0"
         id="stop5201" />
      <stop
         style="stop-color:#7e7878;stop-opacity:1;"
         offset="1"
         id="stop5203" />
    </linearGradient>
    <linearGradient
       id="linearGradient5191">
      <stop
         style="stop-color:#dadad9;stop-opacity:1;"
         offset="0"
         id="stop5193" />
      <stop
         style="stop-color:#dadad9;stop-opacity:0;"
         offset="1"
         id="stop5195" />
    </linearGradient>
    <linearGradient
       id="linearGradient5164">
      <stop
         style="stop-color:white;stop-opacity:1;"
         offset="0"
         id="stop5166" />
      <stop
         style="stop-color:white;stop-opacity:0;"
         offset="1"
         id="stop5168" />
    </linearGradient>
    <linearGradient
       id="linearGradient5154">
      <stop
         style="stop-color:#d9d8d6;stop-opacity:1;"
         offset="0"
         id="stop5156" />
      <stop
         style="stop-color:#b5b4b0;stop-opacity:1;"
         offset="1"
         id="stop5158" />
    </linearGradient>
    <linearGradient
       id="linearGradient5138">
      <stop
         style="stop-color:white;stop-opacity:1;"
         offset="0"
         id="stop5140" />
      <stop
         style="stop-color:white;stop-opacity:0;"
         offset="1"
         id="stop5142" />
    </linearGradient>
    <radialGradient
       xlink:href="#linearGradient5138"
       id="radialGradient5144"
       cx="23.071428"
       cy="11.011853"
       fx="23.071428"
       fy="11.011853"
       r="22.856438"
       gradientUnits="userSpaceOnUse"
       gradientTransform="matrix(3.373032,0,0,3.373032,-54.74925,-26.13148)" />
    <radialGradient
       xlink:href="#linearGradient5154"
       id="radialGradient5160"
       cx="23.071428"
       cy="6.8925552"
       fx="23.071428"
       fy="6.8925552"
       r="22.812966"
       gradientUnits="userSpaceOnUse"
       gradientTransform="matrix(1.440625,0,0,1.440625,-10.16586,-3.037035)" />
    <radialGradient
       xlink:href="#linearGradient5164"
       id="radialGradient5170"
       cx="23.688078"
       cy="23.42804"
       fx="23.688078"
       fy="23.42804"
       r="22.45064"
       gradientUnits="userSpaceOnUse" />
    <radialGradient
       xlink:href="#linearGradient5191"
       id="radialGradient5197"
       cx="22.288452"
       cy="34.537094"
       fx="22.288452"
       fy="34.537094"
       r="9.9375"
       gradientTransform="matrix(1.498147,0,0,1.130677,-11.10293,-5.288817)"
       gradientUnits="userSpaceOnUse" />
    <radialGradient
       xlink:href="#linearGradient5199"
       id="radialGradient5205"
       cx="24.125"
       cy="9.7349367"
       fx="24.125"
       fy="9.7349367"
       r="15.75"
       gradientTransform="matrix(1.652014,0,0,1.088231,-15.72984,3.156134)"
       gradientUnits="userSpaceOnUse" />
  </defs>
  <metadata
     id="metadata1311">
    <rdf:RDF>
      <cc:Work
         rdf:about="">
        <dc:format>image/svg+xml</dc:format>
        <dc:type
           rdf:resource="http://purl.org/dc/dcmitype/StillImage" />
        <cc:license
           rdf:resource="http://creativecommons.org/licenses/GPL/2.0/" />
        <dc:creator>
          <cc:Agent>
            <dc:title>Frank Solensky</dc:title>
          </cc:Agent>
        </dc:creator>
        <dc:subject>
          <rdf:Bag>
            <rdf:li>weather</rdf:li>
            <rdf:li>clear</rdf:li>
            <rdf:li>night</rdf:li>
            <rdf:li>moon</rdf:li>
            <rdf:li>190</rdf:li>
          </rdf:Bag>
        </dc:subject>
      </cc:Work>
      <cc:License
         rdf:about="http://creativecommons.org/licenses/GPL/2.0/">
        <cc:permits
           rdf:resource="http://web.resource.org/cc/Reproduction" />
        <cc:permits
           rdf:resource="http://web.resource.org/cc/Distribution" />
        <cc:requires
           rdf:resource="http://web.resource.org/cc/Notice" />
        <cc:permits
           rdf:resource="http://web.resource.org/cc/DerivativeWorks" />
        <cc:requires
           rdf:resource="http://web.resource.org/cc/ShareAlike" />
        <cc:requires
           rdf:resource="http://web.resource.org/cc/SourceCode" />
      </cc:License>
    </rdf:RDF>
  </metadata>
  <g
     id="layer1">
    <path
       style="opacity:1;color:black;fill:url(#radialGradient5170);fill-opacity:1;fill-rule:evenodd;stroke:none;stroke-width:1;stroke-linecap:round;stroke-linejoin:round;marker:none;marker-start:none;marker-mid:none;marker-end:none;stroke-miterlimit:4;stroke-dasharray:none;stroke-dashoffset:0;stroke-opacity:1;visibility:visible;display:inline;overflow:visible"
       id="path5162"
       d="M 46.138718 23.42804 A 22.45064 22.45064 0 1 1  1.2374382,23.42804 A 22.45064 22.45064 0 1 1  46.138718 23.42804 z"
       transform="translate(-0.146446,0.103554)" />
    <g
       id="g473"
       transform="matrix(1.4099413,0,0,1.4099413,-9.9306794,-9.8691461)">
      <circle
         style="color:#000000;display:inline;overflow:visible;visibility:visible;opacity:1;fill:url(#radialGradient5160);fill-opacity:1;fill-rule:evenodd;stroke:#888a85;stroke-width:1.34022;stroke-linecap:butt;stroke-linejoin:round;stroke-miterlimit:4;stroke-dasharray:none;stroke-dashoffset:0;stroke-opacity:1;marker:none;marker-start:none;marker-mid:none;marker-end:none"
         id="path1314"
         transform="matrix(0.746154,0,0,0.74614,6.850475,6.75386)"
         cx="23.071428"
         cy="23.142857"
         r="22.142857" />
      <path
         style="color:#000000;display:inline;overflow:visible;visibility:visible;opacity:0.331461;fill:url(#radialGradient5205);fill-opacity:1;fill-rule:evenodd;stroke:none;stroke-width:1;stroke-linecap:round;stroke-linejoin:round;stroke-miterlimit:4;stroke-dasharray:none;stroke-dashoffset:0;stroke-opacity:1;marker:none;marker-start:none;marker-mid:none;marker-end:none"
         d="m 10.875,25 c 0,0 2.59375,1.21875 2.625,2.125 0.03125,0.90625 -2.3125,0.3125 -2.5,1.5 -0.1875,1.1875 0.28125,3.21875 1.75,3.25 1.46875,0.03125 1.84375,-2.4375 4.125,-3.125 2.28125,-0.6875 4,1.46875 5,0.375 1,-1.09375 -1.15625,-2.625 -1,-4.75 0.15625,-2.125 0.53125,-1.71875 1.625,-2.4375 1.09375,-0.71875 1.502992,1.722382 2.75,-0.4375 1.205084,-2.087266 -2.53125,-1.34375 -2.375,-2.75 0.15625,-1.40625 1.09375,-2.96875 3,-2.875 1.90625,0.09375 4.625,3.25 4.625,3.25 1.211141,1.165263 0.03862,3.426401 0.625,5 0.688739,1.848301 2.583333,1.742429 3.875,1.75 0,0 -1.90625,-2.15625 -1.625,-3.5 0.28125,-1.34375 1.375,-2.6875 2.75,-1.875 1.375,0.8125 2.75,5.125 2.75,5.125 l 1,-4.375 L 37.75,16 c 0,0 -3.03125,1.0625 -6.375,0.375 -3.34375,-0.6875 -3.6875,-3.28125 -7,-3.125 -3.3125,0.15625 -3.625,3.46875 -6.25,3.75 -2.625,0.28125 -3.375,-1.15625 -4.25,-2.625 -0.875,-1.46875 0.75,-3.25 0.75,-3.25 l -6.25,8.5 z"
         id="path5152" />
      <circle
         style="color:#000000;display:inline;overflow:visible;visibility:visible;opacity:0.808989;fill:none;fill-opacity:1;fill-rule:evenodd;stroke:url(#radialGradient5144);stroke-width:1.42716;stroke-linecap:butt;stroke-linejoin:round;stroke-miterlimit:4;stroke-dasharray:none;stroke-dashoffset:0;stroke-opacity:1;marker:none;marker-start:none;marker-mid:none;marker-end:none"
         id="path2044"
         transform="matrix(0.700698,0,0,0.700684,7.903204,7.809815)"
         cx="23.071428"
         cy="23.142857"
         r="22.142857" />
      <path
         style="color:#000000;display:inline;overflow:visible;visibility:visible;opacity:0.646067;fill:url(#radialGradient5197);fill-opacity:1;fill-rule:evenodd;stroke:none;stroke-width:1;stroke-linecap:round;stroke-linejoin:round;stroke-miterlimit:4;stroke-dasharray:none;stroke-dashoffset:0;stroke-opacity:1;marker:none;marker-start:none;marker-mid:none;marker-end:none"
         d="m 22.625,27 c 0.382135,1.589327 0.877663,2.611683 1.375,3.625 1.554528,-0.140944 2.793411,-0.913178 4,-1.75 -0.722958,1.508785 -1.57191,2.933575 -2.647748,4.207107 2.265966,0.881285 4.366558,0.687649 6.397748,0.04289 -1.425295,1.193408 -2.806745,2.114638 -5.713388,2.396447 2.098208,0.63309 4.423779,1.361637 7.338388,0.478553 -2.676882,1.546397 -5.487958,2.71705 -8.75,2.625 l 3.228553,-0.0455 L 21.375,38.875 18,38.25 l 0.125,-1.5 c -1.411308,0.157149 -2.980215,-0.631292 -4.5,-1.125 1.3655,-0.605625 2.832606,-1.084243 3.75,-2.25 -1.775426,-0.349574 -2.622157,-1.627843 -3.875,-2.5 1.666662,0.25003 3.209775,1.241351 5,0.75 -0.935272,-2.583333 -0.823175,-5.166667 -1.125,-7.75 1.020975,2.208333 1.685572,4.416667 3.125,6.625 0.960276,-0.725767 1.635647,-1.950117 2.125,-3.5 z"
         id="path5150" />
      <circle
         style="color:#000000;display:inline;overflow:visible;visibility:visible;opacity:0.331461;fill:#bbbbb8;fill-opacity:1;fill-rule:evenodd;stroke:#888984;stroke-width:1.1547;stroke-linecap:round;stroke-linejoin:round;stroke-miterlimit:4;stroke-dasharray:none;stroke-dashoffset:0;stroke-opacity:1;marker:none;marker-start:none;marker-mid:none;marker-end:none"
         id="path4263"
         transform="matrix(1,0,0,0.75,0,8.769607)"
         cx="21.625"
         cy="34.5"
         r="2.25" />
      <ellipse
         style="color:#000000;display:inline;overflow:visible;visibility:visible;opacity:0.719101;fill:#b2afad;fill-opacity:1;fill-rule:evenodd;stroke:none;stroke-width:1;stroke-linecap:round;stroke-linejoin:round;stroke-miterlimit:4;stroke-dasharray:none;stroke-dashoffset:0;stroke-opacity:1;marker:none;marker-start:none;marker-mid:none;marker-end:none"
         id="path5207"
         cx="22.375"
         cy="21.75"
         rx="2.625"
         ry="2.3125" />
      <ellipse
         id="path5209"
         style="color:#000000;display:inline;overflow:visible;visibility:visible;opacity:0.719101;fill:#b2afad;fill-opacity:1;fill-rule:evenodd;stroke:none;stroke-width:1;stroke-linecap:round;stroke-linejoin:round;stroke-miterlimit:4;stroke-dasharray:none;stroke-dashoffset:0;stroke-opacity:1;marker:none;marker-start:none;marker-mid:none;marker-end:none"
         transform="matrix(1.22619,0,0,1.22619,-10.09226,-10.31771)"
         cx="22.375"
         cy="21.75"
         rx="2.625"
         ry="2.3125" />
      <ellipse
         transform="matrix(1.060177,0.61609,-0.61609,1.060177,4.459731,-11.05444)"
         style="color:#000000;display:inline;overflow:visible;visibility:visible;opacity:0.719101;fill:#b2afad;fill-opacity:1;fill-rule:evenodd;stroke:none;stroke-width:1;stroke-linecap:round;stroke-linejoin:round;stroke-miterlimit:4;stroke-dasharray:none;stroke-dashoffset:0;stroke-opacity:1;marker:none;marker-start:none;marker-mid:none;marker-end:none"
         id="path5211"
         cx="22.375"
         cy="21.75"
         rx="2.625"
         ry="2.3125" />
      <ellipse
         transform="matrix(0.398445,0.375367,-0.217478,0.387667,31.50244,6.347965)"
         style="color:#000000;display:inline;overflow:visible;visibility:visible;opacity:0.719101;fill:#dfdedc;fill-opacity:1;fill-rule:evenodd;stroke:none;stroke-width:1;stroke-linecap:round;stroke-linejoin:round;stroke-miterlimit:4;stroke-dasharray:none;stroke-dashoffset:0;stroke-opacity:1;marker:none;marker-start:none;marker-mid:none;marker-end:none"
         id="path5213"
         cx="22.375"
         cy="21.75"
         rx="2.625"
         ry="2.3125" />
      <ellipse
         id="path5215"
         style="color:#000000;display:inline;overflow:visible;visibility:visible;opacity:0.719101;fill:#dfdedc;fill-opacity:1;fill-rule:evenodd;stroke:none;stroke-width:1;stroke-linecap:round;stroke-linejoin:round;stroke-miterlimit:4;stroke-dasharray:none;stroke-dashoffset:0;stroke-opacity:1;marker:none;marker-start:none;marker-mid:none;marker-end:none"
         transform="matrix(-0.09424576,0.266814,-0.228734,-0.0218427,38.6609,29.47153)"
         cx="22.375"
         cy="21.75"
         rx="2.625"
         ry="2.3125" />
      <ellipse
         transform="matrix(0.211478,0.199229,-0.115428,0.205758,34.19839,11.49557)"
         style="color:#000000;display:inline;overflow:visible;visibility:visible;opacity:0.719101;fill:#dfdedc;fill-opacity:1;fill-rule:evenodd;stroke:none;stroke-width:1;stroke-linecap:round;stroke-linejoin:round;stroke-miterlimit:4;stroke-dasharray:none;stroke-dashoffset:0;stroke-opacity:1;marker:none;marker-start:none;marker-mid:none;marker-end:none"
         id="path5217"
         cx="22.375"
         cy="21.75"
         rx="2.625"
         ry="2.3125" />
      <ellipse
         id="path5219"
         style="color:#000000;display:inline;overflow:visible;visibility:visible;opacity:0.719101;fill:#f7f7f6;fill-opacity:1;fill-rule:evenodd;stroke:none;stroke-width:1;stroke-linecap:round;stroke-linejoin:round;stroke-miterlimit:4;stroke-dasharray:none;stroke-dashoffset:0;stroke-opacity:1;marker:none;marker-start:none;marker-mid:none;marker-end:none"
         transform="matrix(0.502196,-0.217849,0.270291,0.352881,2.662133,8.622118)"
         cx="22.375"
         cy="21.75"
         rx="2.625"
         ry="2.3125" />
      <ellipse
         transform="matrix(0.301729,-0.130888,0.162396,0.212018,12.27059,8.635285)"
         style="color:#000000;display:inline;overflow:visible;visibility:visible;opacity:0.719101;fill:#f7f7f6;fill-opacity:1;fill-rule:evenodd;stroke:none;stroke-width:1;stroke-linecap:round;stroke-linejoin:round;stroke-miterlimit:4;stroke-dasharray:none;stroke-dashoffset:0;stroke-opacity:1;marker:none;marker-start:none;marker-mid:none;marker-end:none"
         id="path5221"
         cx="22.375"
         cy="21.75"
         rx="2.625"
         ry="2.3125" />
      <ellipse
         id="path5223"
         style="color:#000000;display:inline;overflow:visible;visibility:visible;opacity:0.719101;fill:#f7f7f6;fill-opacity:1;fill-rule:evenodd;stroke:none;stroke-width:1;stroke-linecap:round;stroke-linejoin:round;stroke-miterlimit:4;stroke-dasharray:none;stroke-dashoffset:0;stroke-opacity:1;marker:none;marker-start:none;marker-mid:none;marker-end:none"
         transform="matrix(0.212633,-0.09223866,0.114443,0.149412,14.87145,10.98834)"
         cx="22.375"
         cy="21.75"
         rx="2.625"
         ry="2.3125" />
      <path
         style="opacity:0.25;fill:#000000;fill-opacity:1;stroke:#000000;stroke-width:0;stroke-linejoin:miter;stroke-miterlimit:4;stroke-opacity:1"
         id="shadow"
         d="m 24.1,39 c 8.295317,0 15.02,-6.724683 15.02,-15.02 0,-8.295317 -6.724683,-15.02 -15.02,-15.02 8.169292,0 14.791812,6.724683 14.791812,15.02 0,8.295317 -6.62252,15.02 -14.791812,15.02 z" />
    </g>
  </g>
</svg>
